<svg xmlns="http://www.w3.org/2000/svg" width="1280" height="640" viewBox="0 0 1280 640">
  <defs>
    <linearGradient id="background" x1="0" y1="0" x2="1" y2="1">
      <stop offset="0" stop-color="#08111f"/>
      <stop offset="0.52" stop-color="#111827"/>
      <stop offset="1" stop-color="#26122f"/>
    </linearGradient>
    <linearGradient id="accent" x1="0" y1="0" x2="1" y2="1">
      <stop offset="0" stop-color="#22d3ee"/>
      <stop offset="1" stop-color="#a855f7"/>
    </linearGradient>
    <linearGradient id="cover" x1="0" y1="0" x2="1" y2="1">
      <stop offset="0" stop-color="#38bdf8"/>
      <stop offset="0.5" stop-color="#6366f1"/>
      <stop offset="1" stop-color="#ec4899"/>
    </linearGradient>
    <filter id="shadow" x="-30%" y="-30%" width="160%" height="160%">
      <feDropShadow dx="0" dy="18" stdDeviation="24" flood-color="#000" flood-opacity="0.38"/>
    </filter>
    <filter id="glow" x="-100%" y="-100%" width="300%" height="300%">
      <feGaussianBlur stdDeviation="18"/>
    </filter>
  </defs>

  <rect width="1280" height="640" fill="url(#background)"/>
  <circle cx="1130" cy="40" r="240" fill="#7c3aed" opacity="0.14" filter="url(#glow)"/>
  <circle cx="160" cy="640" r="230" fill="#0891b2" opacity="0.13" filter="url(#glow)"/>
  <path d="M0 510 C250 435 390 620 650 522 C880 435 1020 550 1280 430 L1280 640 L0 640 Z" fill="#fff" opacity="0.025"/>

  <g font-family="Inter, -apple-system, BlinkMacSystemFont, 'Segoe UI', Arial, sans-serif">
    <g transform="translate(84 78)">
      <rect width="72" height="72" rx="20" fill="url(#accent)"/>
      <path d="M45 18 V48.5 C45 57 35 62 28 58 C20 53 23 43 31 41 C34 40 38 40 41 41 V25 L58 21 V44.5 C58 53 48 58 41 54 C34 50 35 42 41 39 C45 37 50 38 54 39 V16 Z" fill="#fff"/>
      <text x="94" y="28" fill="#94a3b8" font-size="18" font-weight="650" letter-spacing="2">OPEN SOURCE</text>
      <text x="94" y="60" fill="#e2e8f0" font-size="25" font-weight="700">Sony Walkman + iPhone</text>
    </g>

    <text x="84" y="244" fill="#fff" font-size="62" font-weight="800" letter-spacing="-2">MusicBleController</text>
    <text x="84" y="300" fill="#cbd5e1" font-size="27" font-weight="500">Real-time QQ Music bridge over Bluetooth Low Energy</text>

    <g transform="translate(84 350)" fill="#e2e8f0" font-size="18" font-weight="600">
      <g>
        <rect width="186" height="46" rx="23" fill="#0f2633" stroke="#22d3ee" stroke-opacity="0.42"/>
        <text x="93" y="29" text-anchor="middle">QRC Lyrics</text>
      </g>
      <g transform="translate(200 0)">
        <rect width="182" height="46" rx="23" fill="#201a35" stroke="#a855f7" stroke-opacity="0.5"/>
        <text x="91" y="29" text-anchor="middle">Album Art</text>
      </g>
      <g transform="translate(0 60)">
        <rect width="186" height="46" rx="23" fill="#201a35" stroke="#a855f7" stroke-opacity="0.5"/>
        <text x="93" y="29" text-anchor="middle">Playback Control</text>
      </g>
      <g transform="translate(200 60)">
        <rect width="210" height="46" rx="23" fill="#0f2633" stroke="#22d3ee" stroke-opacity="0.42"/>
        <text x="105" y="29" text-anchor="middle">Live Activities</text>
      </g>
    </g>

    <text x="84" y="542" fill="#64748b" font-size="19">Kotlin · SwiftUI · CoreBluetooth · ActivityKit</text>
  </g>

  <g transform="translate(772 78)" filter="url(#shadow)">
    <rect x="0" y="52" width="236" height="418" rx="28" fill="#12161d" stroke="#475569" stroke-width="3"/>
    <rect x="17" y="80" width="202" height="338" rx="16" fill="#0b1018"/>
    <text x="118" y="36" text-anchor="middle" fill="#94a3b8" font-family="Arial, sans-serif" font-size="18" font-weight="700">SONY WALKMAN</text>
    <rect x="42" y="108" width="152" height="152" rx="18" fill="url(#cover)"/>
    <circle cx="118" cy="184" r="44" fill="#fff" opacity="0.16"/>
    <path d="M128 142 V207 C128 220 112 228 102 221 C90 213 95 198 107 195 C112 194 117 194 122 196 V151 L152 143 V193 C152 206 136 213 126 206 C116 199 119 187 129 183 C135 181 141 182 147 184 V136 Z" fill="#fff" opacity="0.92"/>
    <rect x="42" y="286" width="128" height="13" rx="6.5" fill="#e2e8f0" opacity="0.88"/>
    <rect x="42" y="313" width="90" height="9" rx="4.5" fill="#64748b"/>
    <rect x="42" y="353" width="152" height="7" rx="3.5" fill="#334155"/>
    <circle cx="80" cy="389" r="17" fill="#1e293b"/>
    <circle cx="118" cy="389" r="22" fill="#f8fafc"/>
    <path d="M112 378 L112 400 L128 389 Z" fill="#111827"/>
    <circle cx="156" cy="389" r="17" fill="#1e293b"/>

    <g transform="translate(148 2)">
      <rect x="0" y="0" width="238" height="484" rx="52" fill="#080a0f" stroke="#94a3b8" stroke-width="3"/>
      <rect x="12" y="12" width="214" height="460" rx="42" fill="#101825"/>
      <rect x="75" y="24" width="88" height="25" rx="13" fill="#020407"/>
      <rect x="35" y="78" width="168" height="168" rx="28" fill="url(#cover)"/>
      <rect x="35" y="278" width="140" height="14" rx="7" fill="#f8fafc"/>
      <rect x="35" y="306" width="98" height="9" rx="4.5" fill="#64748b"/>
      <text x="119" y="356" text-anchor="middle" fill="#fff" font-family="Arial, sans-serif" font-size="17" font-weight="700">Synced lyrics</text>
      <text x="119" y="383" text-anchor="middle" fill="#94a3b8" font-family="Arial, sans-serif" font-size="13">word-level timing</text>
      <line x1="35" y1="416" x2="203" y2="416" stroke="#334155" stroke-width="6" stroke-linecap="round"/>
      <circle cx="112" cy="445" r="17" fill="#f8fafc"/>
      <path d="M107 436 L107 454 L120 445 Z" fill="#111827"/>
    </g>
  </g>

  <g fill="none" stroke-linecap="round" transform="translate(701 265)">
    <path d="M0 20 C18 2 38 2 56 20" stroke="#22d3ee" stroke-width="6" opacity="0.9"/>
    <path d="M10 32 C22 20 34 20 46 32" stroke="#818cf8" stroke-width="6" opacity="0.9"/>
    <circle cx="28" cy="43" r="5" fill="#e879f9" stroke="none"/>
  </g>
</svg>
